<?xml version="1.0" standalone="no"?>
<!DOCTYPE svg PUBLIC "-//W3C//DTD SVG 20010904//EN"
 "http://www.w3.org/TR/2001/REC-SVG-20010904/DTD/svg10.dtd">
<svg version="1.0" xmlns="http://www.w3.org/2000/svg"
 width="96.000000pt" height="96.000000pt" viewBox="0 0 96.000000 96.000000"
 preserveAspectRatio="xMidYMid meet">
<metadata>
Created by potrace 1.11, written by Peter Selinger 2001-2013
</metadata>
<g transform="translate(0.000000,96.000000) scale(0.100000,-0.100000)"
fill="#000000" stroke="none">
<path d="M647 874 c-4 -4 -7 -27 -7 -50 l0 -43 -67 -3 -68 -3 -3 -47 -3 -47
-67 -3 -67 -3 -3 -106 -3 -107 -39 19 c-21 10 -48 19 -59 19 -19 0 -178 -65
-194 -79 -4 -4 -6 -64 -5 -133 l3 -126 73 34 c41 19 79 34 85 34 6 0 82 -29
170 -65 109 -46 165 -64 180 -59 12 3 72 34 132 67 61 33 124 68 142 76 74 37
68 91 -12 117 l-55 17 -2 246 -3 246 -60 3 c-34 2 -64 0 -68 -4z"/>
</g>
</svg>
